<svg width="204" height="28" viewBox="0 0 204 28" fill="none" xmlns="http://www.w3.org/2000/svg">
<path d="M7.62954 4.384C9.13754 4.384 10.3942 4.748 11.3995 5.476C12.7515 6.44667 13.4275 7.96333 13.4275 10.026C13.4275 11.5167 13.0115 12.7907 12.1795 13.848C11.2782 14.9747 10.0215 15.538 8.40954 15.538C7.56021 15.538 6.78887 15.3387 6.09554 14.94C5.40221 14.524 4.99487 13.822 4.87354 12.834L5.10754 12.756C5.29821 13.5013 5.74021 14.0213 6.43354 14.316C6.90154 14.524 7.31754 14.628 7.68154 14.628C9.10287 14.628 10.1342 14.0733 10.7755 12.964C11.2435 12.1493 11.4775 11.1787 11.4775 10.052C11.4775 8.24933 10.9749 6.94933 9.96954 6.152C9.20687 5.528 8.23621 5.216 7.05754 5.216C6.78021 5.216 6.53754 5.23333 6.32954 5.268C6.13887 5.28533 5.27221 5.424 3.72954 5.684V21.102C3.74687 21.57 3.92021 21.96 4.24954 22.272C4.57887 22.584 4.96021 22.74 5.39354 22.74H5.73154V23H0.0375391V22.74H0.375539C0.808873 22.74 1.19021 22.584 1.51954 22.272C1.84887 21.96 2.02221 21.57 2.03954 21.102V7.036C2.03954 6.58533 1.90954 6.23867 1.64954 5.996C1.38954 5.736 1.05154 5.606 0.635539 5.606C0.548872 5.606 0.462206 5.61467 0.375539 5.632L0.0635392 5.658L0.0115392 5.398C0.912873 5.31133 2.11754 5.14667 3.62554 4.904C5.15087 4.644 6.09554 4.49667 6.45954 4.462C6.82354 4.41 7.21354 4.384 7.62954 4.384ZM31.1853 22.74H31.3933V23H25.5433V22.74H25.7773C26.1413 22.74 26.41 22.6273 26.5833 22.402C26.774 22.1593 26.8693 21.934 26.8693 21.726C26.8693 21.518 26.8347 21.31 26.7653 21.102L25.1013 16.682H18.0813L16.3393 21.128C16.27 21.336 16.2353 21.544 16.2353 21.752C16.2353 21.9427 16.322 22.1593 16.4953 22.402C16.686 22.6273 16.9633 22.74 17.3273 22.74H17.5613V23H12.3353V22.74H12.5693C13.0027 22.74 13.4273 22.6013 13.8433 22.324C14.2593 22.0467 14.5973 21.6393 14.8573 21.102L20.7333 7.114C21.3747 5.71 21.6953 4.81733 21.6953 4.436H21.9293L28.8973 21.102C29.14 21.6393 29.4693 22.0467 29.8853 22.324C30.3013 22.6013 30.7347 22.74 31.1853 22.74ZM18.3933 15.902H24.7893L21.6693 7.556L18.3933 15.902ZM49.275 5.06H48.859C48.495 5.06 48.1744 5.18133 47.897 5.424C47.637 5.64933 47.4984 5.93533 47.481 6.282V16.578C47.481 18.606 46.8397 20.244 45.557 21.492C44.2744 22.74 42.567 23.364 40.435 23.364C38.303 23.364 36.5697 22.7487 35.235 21.518C33.9177 20.27 33.259 18.632 33.259 16.604V6.36C33.259 5.84 33.0337 5.45867 32.583 5.216C32.375 5.112 32.141 5.06 31.881 5.06H31.465V4.8H36.743V5.06H36.327C35.9457 5.06 35.625 5.18133 35.365 5.424C35.105 5.64933 34.9664 5.944 34.949 6.308V16.24C34.949 18.1293 35.4517 19.6547 36.457 20.816C37.4797 21.9773 38.8404 22.558 40.539 22.558C42.2377 22.558 43.6157 22.012 44.673 20.92C45.7304 19.8107 46.259 18.3633 46.259 16.578V6.308C46.2417 5.944 46.103 5.64933 45.843 5.424C45.583 5.18133 45.2624 5.06 44.881 5.06H44.465V4.8H49.275V5.06ZM52.4771 22.74C52.9278 22.74 53.3091 22.584 53.6211 22.272C53.9504 21.9427 54.1238 21.5527 54.1411 21.102V6.698C54.1238 6.24733 53.9504 5.866 53.6211 5.554C53.3091 5.22467 52.9278 5.06 52.4771 5.06H52.1391V4.8H57.8331V5.06H57.4951C56.8711 5.06 56.3944 5.32867 56.0651 5.866C55.9091 6.126 55.8311 6.40333 55.8311 6.698V22.194H59.5491C60.8318 22.194 61.8111 21.908 62.4871 21.336C63.1631 20.764 63.7264 19.9147 64.1771 18.788H64.4371L62.9291 23H52.1391V22.74H52.4771ZM85.2767 22.74C85.7274 22.74 86.1174 22.584 86.4467 22.272C86.776 21.96 86.9494 21.5787 86.9667 21.128V14.498H78.7767V21.18C78.7767 23.26 78.248 24.9153 77.1907 26.146C76.3587 27.1167 75.1627 27.602 73.6027 27.602C73.1 27.602 72.554 27.5413 71.9647 27.42L71.9127 27.16C73.1954 26.6227 74.0187 25.8253 74.3827 24.768C74.712 23.8667 74.8767 22.6707 74.8767 21.18V6.672C74.8594 6.22133 74.686 5.84 74.3567 5.528C74.0447 5.216 73.6634 5.06 73.2127 5.06H72.8747V4.8H80.7787V5.06H80.4407C79.8167 5.06 79.3487 5.32 79.0367 5.84C78.8807 6.08267 78.794 6.36 78.7767 6.672V13.38H86.9667V7.14C86.9667 5.112 87.5994 3.5 88.8647 2.304C89.87 1.316 91.1354 0.821999 92.6607 0.821999C93.0074 0.821999 93.3714 0.847999 93.7527 0.899999L93.8047 1.16C92.5394 1.61067 91.716 2.408 91.3347 3.552C91.0227 4.488 90.858 5.684 90.8407 7.14V21.102C90.858 21.726 91.1354 22.194 91.6727 22.506C91.9327 22.662 92.2187 22.74 92.5307 22.74H92.8427V23H84.9647V22.74H85.2767ZM113.261 22.74H113.495V23H105.201V22.74H105.435C105.817 22.74 106.094 22.6273 106.267 22.402C106.458 22.1593 106.553 21.934 106.553 21.726C106.553 21.518 106.51 21.31 106.423 21.102L105.149 17.904H99.0652L97.7132 21.102C97.6266 21.3273 97.5832 21.544 97.5832 21.752C97.5832 21.9427 97.6699 22.1593 97.8432 22.402C98.0339 22.6273 98.3286 22.74 98.7272 22.74H98.9352V23H93.3712V22.74H93.6052C94.0039 22.74 94.4026 22.6187 94.8012 22.376C95.1999 22.1333 95.5292 21.7693 95.7892 21.284L101.795 7.686C102.61 5.97 103.043 4.83467 103.095 4.28H103.329L111.051 21.232C111.311 21.7347 111.641 22.116 112.039 22.376C112.438 22.6187 112.845 22.74 113.261 22.74ZM99.5072 16.812H104.707L102.185 10.416L99.5072 16.812ZM123.215 4.8C126.283 4.8 128.709 5.61467 130.495 7.244C132.28 8.87333 133.173 11.092 133.173 13.9C133.173 16.708 132.28 18.9267 130.495 20.556C128.709 22.1853 126.283 23 123.215 23H113.777V22.74H114.115C114.565 22.74 114.947 22.584 115.259 22.272C115.588 21.9427 115.761 21.5527 115.779 21.102V6.542C115.727 6.126 115.545 5.77933 115.233 5.502C114.921 5.20733 114.548 5.06 114.115 5.06H113.777V4.8H123.215ZM122.877 21.908C124.125 21.908 125.199 21.5873 126.101 20.946C127.019 20.2873 127.721 19.36 128.207 18.164C128.692 16.9507 128.935 15.5293 128.935 13.9C128.935 11.4387 128.389 9.48867 127.297 8.05C126.222 6.61133 124.749 5.892 122.877 5.892H119.679V21.908H122.877ZM144.238 4.8C147.306 4.8 149.733 5.61467 151.518 7.244C153.303 8.87333 154.196 11.092 154.196 13.9C154.196 16.708 153.303 18.9267 151.518 20.556C149.733 22.1853 147.306 23 144.238 23H134.8V22.74H135.138C135.589 22.74 135.97 22.584 136.282 22.272C136.611 21.9427 136.785 21.5527 136.802 21.102V6.542C136.75 6.126 136.568 5.77933 136.256 5.502C135.944 5.20733 135.571 5.06 135.138 5.06H134.8V4.8H144.238ZM143.9 21.908C145.148 21.908 146.223 21.5873 147.124 20.946C148.043 20.2873 148.745 19.36 149.23 18.164C149.715 16.9507 149.958 15.5293 149.958 13.9C149.958 11.4387 149.412 9.48867 148.32 8.05C147.245 6.61133 145.772 5.892 143.9 5.892H140.702V21.908H143.9ZM166.933 4.436C170.14 4.436 172.688 5.28533 174.577 6.984C176.466 8.68267 177.411 10.988 177.411 13.9C177.411 16.812 176.466 19.1173 174.577 20.816C172.688 22.5147 170.14 23.364 166.933 23.364C163.726 23.364 161.178 22.5147 159.289 20.816C157.4 19.1173 156.455 16.812 156.455 13.9C156.455 11.976 156.88 10.3033 157.729 8.882C158.596 7.44333 159.818 6.34267 161.395 5.58C162.972 4.81733 164.818 4.436 166.933 4.436ZM162.383 20.036C163.51 21.5267 165.026 22.272 166.933 22.272C168.84 22.272 170.348 21.5267 171.457 20.036C172.584 18.528 173.147 16.4827 173.147 13.9C173.147 12.2013 172.896 10.7193 172.393 9.454C171.89 8.18867 171.171 7.218 170.235 6.542C169.299 5.866 168.198 5.528 166.933 5.528C165.026 5.528 163.51 6.282 162.383 7.79C161.274 9.28067 160.719 11.3173 160.719 13.9C160.719 16.4827 161.274 18.528 162.383 20.036ZM198.504 5.06H198.062C197.698 5.06 197.377 5.18133 197.1 5.424C196.84 5.64933 196.71 5.93533 196.71 6.282V16.422C196.71 18.554 196.043 20.244 194.708 21.492C193.373 22.74 191.545 23.364 189.222 23.364C186.483 23.364 184.386 22.7573 182.93 21.544C181.474 20.3133 180.746 18.6147 180.746 16.448V6.36C180.746 5.97867 180.607 5.66667 180.33 5.424C180.07 5.18133 179.749 5.06 179.368 5.06H178.952V4.8H186.44V5.06H186.024C185.643 5.06 185.322 5.18133 185.062 5.424C184.802 5.64933 184.663 5.944 184.646 6.308V16.24C184.646 18.0773 185.097 19.5333 185.998 20.608C186.899 21.6827 188.139 22.22 189.716 22.22C191.293 22.22 192.541 21.7173 193.46 20.712C194.379 19.6893 194.847 18.3113 194.864 16.578V6.308C194.864 5.944 194.725 5.64933 194.448 5.424C194.188 5.18133 193.867 5.06 193.486 5.06H193.07V4.8H198.504V5.06ZM202.971 22.714C202.607 23.078 202.165 23.26 201.645 23.26C201.125 23.26 200.683 23.078 200.319 22.714C199.955 22.35 199.773 21.908 199.773 21.388C199.773 20.868 199.955 20.426 200.319 20.062C200.683 19.6807 201.125 19.49 201.645 19.49C202.165 19.49 202.607 19.6807 202.971 20.062C203.352 20.426 203.543 20.868 203.543 21.388C203.543 21.908 203.352 22.35 202.971 22.714Z" fill="#07071C"/>
</svg>
